<?xml version="1.0" encoding="UTF-8"?>
<svg id="Ebene_1" xmlns="http://www.w3.org/2000/svg" version="1.1" viewBox="0 0 999.912 598.924">
  <!-- Generator: Adobe Illustrator 29.5.1, SVG Export Plug-In . SVG Version: 2.1.0 Build 141)  -->
  <g>
    <path d="M91.674,555.343c-4.571,8.637-9.496,15.081-14.774,19.331-5.279,4.251-10.981,6.376-17.104,6.376-9.37,0-17.048-4.251-23.035-12.75-5.988-8.502-8.98-19.608-8.98-33.32,0-14.761,3.609-27.341,10.831-37.738,7.222-10.397,15.745-15.597,25.571-15.597,3.703,0,7.016.846,9.941,2.537,2.924,1.691,5.506,4.296,7.746,7.815l3.359-2.537,4.662,7.336-22.485,22.76-4.799-7.335c1.142-1.554,1.965-3.05,2.468-4.491.502-1.439.754-2.89.754-4.353,0-2.695-.743-4.935-2.228-6.718-1.486-1.781-3.349-2.673-5.587-2.673-3.52,0-6.114,1.908-7.781,5.724-1.669,3.816-2.502,9.768-2.502,17.858,0,12.478,2.022,22.658,6.067,30.543,4.045,7.882,9.152,11.826,15.322,11.826,2.787,0,5.587-.892,8.398-2.675,2.811-1.781,5.816-4.568,9.015-8.364l5.142,6.446Z" fill="#1d1d1b"/>
    <path d="M97.569,545.95c0-11.152,3.039-20.235,9.117-27.251,6.078-7.016,13.848-10.522,23.309-10.522,9.05,0,16.305,3.302,21.766,9.905,5.461,6.606,8.193,15.46,8.193,26.566,0,10.465-3.109,19.149-9.323,26.05-6.216,6.903-13.986,10.352-23.309,10.352-8.821,0-15.984-3.232-21.492-9.701-5.508-6.466-8.261-14.933-8.261-25.4ZM125.95,517.98c-2.56,0-4.468,1.291-5.725,3.874-1.257,2.582-1.884,6.524-1.884,11.826,0,10.557,1.29,19.446,3.873,26.667,2.582,7.223,5.657,10.832,9.221,10.832,2.559,0,4.479-1.301,5.759-3.907,1.279-2.605,1.919-6.489,1.919-11.656,0-10.51-1.302-19.411-3.907-26.701-2.606-7.29-5.691-10.934-9.256-10.934Z" fill="#1d1d1b"/>
    <path d="M174.556,555.206c3.062,4.753,6.055,8.329,8.981,10.729,2.925,2.398,5.781,3.599,8.569,3.599,1.737,0,3.062-.435,3.976-1.304.914-.867,1.371-2.125,1.371-3.771,0-1.279-.572-2.523-1.713-3.736-1.143-1.209-3.703-3.095-7.679-5.655-.732-.457-1.76-1.074-3.085-1.851-9.507-5.804-14.26-12.453-14.26-19.95,0-6.993,2.079-12.922,6.239-17.79,4.158-4.868,9.071-7.3,14.739-7.3,2.788,0,5.61.48,8.467,1.439,2.856.959,6.204,2.582,10.043,4.868l-7.129,14.74c-2.012-3.062-4.228-5.417-6.65-7.063-2.423-1.644-4.891-2.468-7.404-2.468-1.463,0-2.628.412-3.496,1.234-.869.824-1.302,1.943-1.302,3.359,0,1.281.491,2.503,1.474,3.669.983,1.164,2.846,2.662,5.588,4.491.502.365,1.257.869,2.262,1.508,11.38,7.45,17.071,14.898,17.071,22.348,0,7.313-2.228,13.265-6.685,17.858-4.456,4.593-10.272,6.891-17.447,6.891-3.703,0-7.199-.685-10.489-2.056-3.291-1.371-6.627-3.542-10.009-6.513l8.569-17.276Z" fill="#1d1d1b"/>
    <path d="M220.626,579.063v-8.706h4.868v-47.851l-4.868,1.506v-7.403l23.995-8.432v10.215c4.752-3.976,8.511-6.673,11.277-8.09,2.765-1.416,5.427-2.125,7.987-2.125,3.519,0,6.592,1.017,9.221,3.05,2.627,2.035,4.216,4.673,4.764,7.92,4.89-4.251,8.775-7.141,11.655-8.674,2.879-1.531,5.597-2.296,8.158-2.296,4.889,0,8.546,1.531,10.968,4.593,2.423,3.062,3.634,7.655,3.634,13.779v43.807h4.936v8.706h-28.382v-8.706h4.25v-35.101c0-4.89-.468-8.055-1.405-9.496-.938-1.439-2.595-2.158-4.97-2.158-1.371,0-2.732.252-4.08.754-1.349.502-2.731,1.279-4.147,2.33v43.67h4.182v8.706h-27.628v-8.706h4.182v-35.101c0-4.89-.458-8.055-1.371-9.496-.915-1.439-2.514-2.158-4.799-2.158-1.417,0-2.822.262-4.216.787-1.395.527-2.801,1.293-4.216,2.297v43.67h4.181v8.706h-28.176Z" fill="#1d1d1b"/>
    <path d="M352.116,508.177c-.183,1.553-.321,3.187-.412,4.901-.092,1.716-.136,4.103-.136,7.165v50.114h4.935v8.706h-29.616v-8.706h4.868v-47.851l-4.868,1.506v-7.403l25.229-8.432ZM340.187,505.092c-2.285,0-4.09-.639-5.415-1.921-1.327-1.279-1.989-3.039-1.989-5.28,0-3.152,1.382-6.019,4.148-8.602,2.765-2.582,5.816-3.874,9.152-3.874,2.102,0,3.873.685,5.313,2.056,1.44,1.371,2.16,3.062,2.16,5.073,0,3.154-1.361,6.034-4.08,8.639-2.72,2.605-5.816,3.908-9.289,3.908Z" fill="#1d1d1b"/>
    <path d="M412.376,555.343c-2.103,8.272-5.268,14.626-9.495,19.057-4.228,4.435-9.245,6.651-15.048,6.651-6.718,0-12.238-3.005-16.556-9.016-4.319-6.009-6.479-13.767-6.479-23.273,0-11.289,2.901-20.877,8.707-28.759,5.803-7.885,12.682-11.826,20.635-11.826,3.839,0,7.267,1.142,10.284,3.427,3.016,2.287,5.53,5.622,7.541,10.01l-13.574,17.55c-1.783-6.536-3.508-11.141-5.176-13.814-1.669-2.675-3.645-4.011-5.93-4.011-1.828,0-3.199.812-4.114,2.433-.914,1.623-1.371,4.058-1.371,7.303,0,8.958,1.304,16.202,3.908,21.731,2.605,5.53,5.987,8.294,10.146,8.294,2.193,0,4.363-.879,6.512-2.638,2.148-1.761,4.09-4.261,5.827-7.508l4.182,4.388Z" fill="#1d1d1b"/>
    <path d="M511.096,555.343c-4.573,8.637-9.496,15.081-14.774,19.331-5.279,4.251-10.98,6.376-17.104,6.376-9.37,0-17.048-4.251-23.035-12.75-5.988-8.502-8.98-19.608-8.98-33.32,0-14.761,3.609-27.341,10.831-37.738,7.222-10.397,15.745-15.597,25.571-15.597,3.703,0,7.016.846,9.941,2.537,2.924,1.691,5.506,4.296,7.746,7.815l3.358-2.537,4.663,7.336-22.485,22.76-4.799-7.335c1.142-1.554,1.965-3.05,2.468-4.491.502-1.439.754-2.89.754-4.353,0-2.695-.743-4.935-2.228-6.718-1.486-1.781-3.349-2.673-5.587-2.673-3.52,0-6.114,1.908-7.781,5.724-1.669,3.816-2.502,9.768-2.502,17.858,0,12.478,2.022,22.658,6.067,30.543,4.045,7.882,9.152,11.826,15.322,11.826,2.787,0,5.587-.892,8.398-2.675,2.811-1.781,5.816-4.568,9.015-8.364l5.142,6.446Z" fill="#1d1d1b"/>
    <path d="M550.446,572.619c-2.377,2.787-4.935,4.89-7.678,6.306-2.742,1.416-5.62,2.125-8.637,2.125-5.165,0-9.313-1.851-12.445-5.552-3.13-3.704-4.693-8.592-4.693-14.671,0-7.862,2.513-14.248,7.538-19.161,5.03-4.913,11.564-7.37,19.608-7.37.367,0,1.006.023,1.92.068.914.047,2.353.162,4.318.342l.068-5.073c0-2.787-.607-4.868-1.816-6.239-1.211-1.371-3.05-2.056-5.517-2.056-2.377,0-4.435.697-6.171,2.091-1.738,1.396-3.564,3.898-5.485,7.507l-7.54-1.851,6.718-23.859,7.747,1.371-1.166,5.075c2.467-1.189,4.833-2.068,7.093-2.64,2.263-.572,4.538-.857,6.823-.857,6.856,0,11.744,1.828,14.671,5.485,2.925,3.656,4.386,9.871,4.386,18.647v38.048h4.937v8.706h-22.348l-2.332-6.444ZM550.378,542.111c-.547-.137-1.076-.24-1.576-.31-.504-.068-.939-.102-1.304-.102-3.337,0-5.929,1.338-7.78,4.011-1.853,2.675-2.777,6.388-2.777,11.141,0,3.656.525,6.306,1.576,7.952,1.051,1.644,2.718,2.467,5.005,2.467,2.333,0,4.066-.789,5.21-2.365,1.144-1.578,1.713-4.011,1.713-7.303l-.068-15.492Z" fill="#1d1d1b"/>
    <path d="M588.221,497.62l-4.935,1.576v-7.473l29.616-9.528v7.403l-4.87,1.851v23.994c2.925-2.513,5.612-4.353,8.055-5.517,2.447-1.166,4.903-1.748,7.37-1.748,5.349,0,9.748,2.48,13.199,7.438,3.45,4.96,5.173,11.369,5.173,19.229,0,6.216-1.142,12.42-3.427,18.614-2.285,6.194-5.484,11.734-9.596,16.624-2.927,3.474-6.321,6.171-10.182,8.09-3.861,1.92-7.825,2.88-11.894,2.88-3.429,0-6.778-.709-10.045-2.125-3.267-1.416-6.089-3.382-8.465-5.897v-75.409ZM608.032,523.19v32.291c0,4.616.492,7.667,1.476,9.151.982,1.486,2.73,2.228,5.243,2.228,3.199,0,5.587-1.519,7.165-4.558,1.576-3.04,2.365-7.598,2.365-13.677,0-8.502-.984-15.003-2.947-19.506-1.968-4.501-4.825-6.751-8.571-6.751-.822,0-1.623.068-2.398.205-.779.137-1.554.342-2.333.617Z" fill="#1d1d1b"/>
    <path d="M674.941,570.356h4.8v8.706h-29.479v-8.706h4.73v-72.737l-4.73,1.576v-7.473l29.616-9.528v7.403l-4.937,1.851v78.908Z" fill="#1d1d1b"/>
    <path d="M739.111,563.363c-3.704,5.942-7.69,10.375-11.963,13.299-4.273,2.925-8.901,4.388-13.884,4.388-7.173,0-13.07-3.164-17.686-9.496-4.618-6.329-6.925-14.544-6.925-24.646,0-10.967,2.56-20.166,7.68-27.593,5.118-7.426,11.311-11.139,18.579-11.139,6.306,0,11.744,2.787,16.315,8.364,4.57,5.575,7.29,12.888,8.157,21.936-2.238.687-4.443,1.441-6.614,2.263-2.171.822-4.331,1.761-6.479,2.81l-17.003,8.297c1.463,4.523,3.164,7.78,5.107,9.768,1.943,1.988,4.378,2.982,7.303,2.982,2.238,0,4.501-.605,6.786-1.816,2.285-1.211,4.755-3.074,7.405-5.587l3.222,6.169ZM706.82,541.974l14.603-6.993c-.914-5.575-2.15-9.756-3.702-12.545-1.556-2.788-3.429-4.181-5.622-4.181-2.058,0-3.624,1.234-4.696,3.701-1.076,2.468-1.613,6.057-1.613,10.762,0,1.693.082,3.281.242,4.765.16,1.486.422,2.982.787,4.49Z" fill="#1d1d1b"/>
    <path d="M779.009,579.063v-10.695h4.87v-74.107h-4.87v-10.832h32.153v10.832h-4.8v74.107c3.841,0,7.303-.525,10.387-1.576,3.087-1.051,5.882-2.675,8.399-4.868l1.029-9.118h8.707l-2.537,29.479h-8.706l.135-3.222h-44.766Z" fill="#1d1d1b"/>
    <path d="M866.693,559.524c0,2.652.285,4.491.857,5.519.572,1.027,1.589,1.541,3.052,1.541.73,0,1.531-.148,2.398-.445.869-.297,1.853-.765,2.949-1.406l2.673,4.935c-3.29,3.841-6.468,6.698-9.528,8.571-3.062,1.873-6.149,2.81-9.256,2.81-4.616,0-7.93-1.291-9.94-3.874-2.011-2.58-3.017-6.911-3.017-12.99v-43.67h-5.003v-7.747c4.798-1.051,8.774-3.234,11.928-6.548,3.152-3.312,5.53-7.87,7.128-13.677l5.759,1.716v15.835h10.695l-2.263,10.422h-8.432v39.007Z" fill="#1d1d1b"/>
    <path d="M920.03,497.62l-5.485,1.988v-7.473l30.301-9.94v7.403l-5.005,1.851v78.908h4.868v8.706h-23.172l-1.097-5.485c-3.152,2.697-5.954,4.618-8.397,5.759-2.445,1.142-4.925,1.713-7.438,1.713-5.851,0-10.799-3.154-14.843-9.461-4.046-6.306-6.067-14.214-6.067-23.72,0-11.197,2.638-20.59,7.917-28.177,5.28-7.585,11.529-11.379,18.749-11.379,1.646,0,3.257.205,4.833.617,1.578.41,3.189,1.051,4.835,1.918v-13.23ZM920.03,565.968v-35.922c0-4.204-.504-7.22-1.509-9.049-1.006-1.828-2.652-2.742-4.937-2.742-3.244,0-5.702,1.931-7.368,5.792-1.67,3.864-2.503,9.563-2.503,17.106,0,8.362.994,14.763,2.982,19.194,1.988,4.435,4.833,6.651,8.534,6.651.686,0,1.416-.08,2.195-.24.775-.16,1.644-.422,2.605-.789Z" fill="#1d1d1b"/>
    <path d="M963.7,580.022c-2.515,0-4.548-1.027-6.101-3.085-1.556-2.056-2.33-4.775-2.33-8.157,0-3.337.775-6.034,2.33-8.09,1.553-2.058,3.587-3.087,6.101-3.087s4.546,1.029,6.101,3.087c1.554,2.056,2.33,4.753,2.33,8.09s-.777,6.044-2.33,8.122c-1.556,2.08-3.589,3.119-6.101,3.119Z" fill="#1d1d1b"/>
  </g>
  <g>
    <path d="M349.305,415.317c17.567-.14,35.131-.085,52.698-.085,89.765.006,179.53,0,269.292.072,2.85,0,4.44-.531,4.628-3.732,1.173-19.936-2.189-39.024-10.815-57.048-8.919-18.64-22.439-33.31-39.765-44.439-5.906-3.791-12.155-7.052-18.037-10.441-.746.692-1.01.82-1.049.997-.215.874-.405,1.759-.541,2.652-2.177,13.706-7.825,25.88-16.723,36.432-15.515,18.398-35.493,28.903-59.076,33.168-23.285,4.207-45.676,1.41-66.751-8.981-26.523-13.08-43.845-33.669-48.585-64.239-2.63,1.272-4.971,2.346-7.25,3.531-16.416,8.527-30.586,19.779-41.485,34.826-15.894,21.946-22.226,46.593-20.518,73.511.188,2.959,1.038,3.796,3.976,3.775Z" fill="#1d1d1b" fill-rule="evenodd"/>
    <path d="M697.089,435.667c-.068-.207-.169-.413-.252-.62-.725-2.077-2.028-4.01-3.864-5.644-.035-.031-.076-.064-.11-.097-2.532-2.586-5.84-4.946-9.334-6.675-2.451-1.355-4.952-2.371-7.096-2.517h-.019c-1.202-.24-2.375-.37-3.488-.37-107.123,0-214.245.054-321.368-.116-7.848-.012-14.296,2.705-20.357,6.957-1.971,1.384-3.533,1.578-5.577.682-18.472-8.103-33.634-20.639-46.318-36.011-7.628-9.248-14-19.538-20.935-29.36-1.057-1.495-1.038-2.528.563-3.963,8.487-7.635,12.999-17.533,14.995-28.544,3.141-17.351.896-34.423-4.654-50.892-5.509-16.337-11.968-32.368-18.33-48.408-6.709-16.911-13.314-33.797-16.177-51.933-3.404-21.601.67-41.635,11.793-60.303,9.646-16.192,22.941-29.119,37.424-40.895,3.446-2.8,6.479-6.734,11.856-5.823.524.088,1.17-.535,2.095-.991-2.478-3.759-4.845-7.353-7.651-11.618-1.057,1.797-1.647,2.931-2.358,3.978-1.276,1.881-2.276,4.168-3.999,5.497-12.161,9.376-23.359,19.725-33.175,31.548-21.872,26.347-28.699,56.303-21.154,89.546,4.163,18.353,11.759,35.536,18.576,52.99,5.702,14.592,11.172,29.31,15.949,44.228,4.878,15.23,5.81,30.908,1.755,46.574-2.067,7.994-5.93,15.026-12.708,20.616-.721-.886-1.224-1.477-1.694-2.092-7.872-10.398-17.494-18.136-30.814-20.195-9.439-1.456-18.526-.665-26.721,4.785-10.076,6.691-11.411,19.069-2.902,27.249,4.368,4.198,9.771,6.418,15.701,7.366,12.813,2.04,25.26.498,37.39-3.953,2.395-.882,4.775-1.795,7.252-2.724,18.662,29.477,39.489,56.352,72.706,70.209-.174.845-.239,1.288-.357,1.72-1.774,6.532-.59,8.169,5.932,8.169,109.729-.004,219.458-.014,329.191.033.11,0,.211-.006.318-.008h35.21s.429.101.964-.083c1.822-.163,2.241-.793,1.898-2.922.035-.163.083-.285.111-.467.079-.502.122-1.002.134-1.499.112.029.213.054.324.082-.363-1.795-.456-2.687-.727-3.511ZM202.673,362.213c-2.768-.884-5.487-2.835-7.502-4.981-5.342-5.692-2.37-14.163,6.112-17.219,13.335-4.806,25.576-2.408,36.3,6.776,3.531,3.023,6.449,6.761,10.324,10.901-15.436,6.301-30.001,9.384-45.235,4.523Z" fill="#1d1d1b" fill-rule="evenodd"/>
    <path d="M404.976,70.098c4.512,1.788,2.561,5.444,2.812,8.365.266,3.101.315,6.093-2.303,8.778-2.131,2.187-1.362,7.618,1.245,9.567,2.819,2.105,2.331,4.241,1.286,6.792-.515,1.249-1.24,2.539-1.266,3.82-.025,1.23.656,2.503,1.173,3.693.574,1.317,1.778,2.524,1.892,3.847.514,5.978.219,12.074,1.229,17.951.899,5.253,2.424,10.654,4.919,15.324,4.664,8.748,12.99,10.641,22.312,10.342,11.908-.377,19.396-8.243,21.458-18.538,1.345-6.727,1.846-13.646,2.35-20.509.251-3.444,2.276-5.558,4.942-5.935,5.612-.794,11.358-.503,16.601,2.156,2.283,1.159,3.971,2.852,3.684,5.891-.213,2.236-.129,4.555.191,6.782.812,5.644,3.938,7.731,9.394,6.964,1.762-.246,4.705-.136,5.233.837.782,1.428.42,4.045-.405,5.671-1.824,3.601-4.216,6.917-6.416,10.321-2.875,4.451-3.593,8.975-.548,13.636,1.034,1.582,2.159,3.1,3.24,4.648-.287.017-.574.035-.862.056-.287,2.552-.574,5.105-.908,8.07,9.34,0,17.934.074,26.517-.12.748-.016,2.104-1.817,2.053-2.73-.107-1.914-.958-3.792-1.553-5.857,3.573-4.318,6.778-9.128,3.763-15.153-1.95-3.897-4.898-7.291-6.869-11.175-1.081-2.131-1.058-4.822-1.531-7.259,2.225-.251,4.48-.847,6.673-.677,3.928.302,7.472-2.065,7.977-6.037.314-2.464.527-4.995.308-7.457-.316-3.632,1.582-5.845,4.585-6.582,4.545-1.118,9.26-1.8,13.935-2.118,4.374-.296,6.507,2.101,6.654,6.46.066,2.04.105,4.083.273,6.116.601,7.34,1.326,14.692,4.952,21.295,4.96,9.045,13.095,11.57,22.871,11.261,12.473-.395,19.899-8.549,21.83-19.315,1.431-7.971,1.584-16.174,2.356-24.267.103-1.069.225-2.77.845-3.048,3.988-1.782,2.773-4.201,1.58-7.18-1.041-2.599-2.842-5.751,1.107-7.93.479-.263.907-1.775.653-2.039-2.416-2.559-.547-3.604,1.999-4.642-1.689-3.048-3.255-5.868-4.985-8.993-.262,1.76-.485,3.262-.737,4.96-1.167-.087-2.121-.155-3.86-.285.702-2.582.624-5.542,2.049-6.796,2.22-1.957,4.223-3.404,3.548-6.72-.07-.343.911-.842,1.305-1.345.744-.944,1.417-1.943,2.119-2.923-1.103-.578-2.236-1.7-3.302-1.637-2.93.179-3.831-.988-3.567-3.741.186-1.91-.074-3.862.095-5.773.083-.913.7-1.776,1.074-2.662.7-1.667,1.925-3.31,1.999-5.004.252-5.77.161-11.56.082-17.34-.049-3.374,1.053-7.147-2.8-9.451-.281-.166-.198-.857-.417-1.224-.413-.68-.932-1.305-1.4-1.953-.506.725-1.041,1.436-1.505,2.186-.343.553-.626,1.146-.884,1.744-.81,1.849-2.179,3.67-2.288,5.566-.316,5.309-.209,10.651-.074,15.975.093,3.567-1.2,7.629,2.939,10.066.207.125.269.626.269.953.019,3.371.016,6.744.016,10.41-1.978.094-3.341.038-4.665.255-1.749.288-2.718,3.302-1.276,3.817,3.68,1.313,2.563,4.165,2.46,6.499-.132,3.053-.132,6.446-1.464,9.043-2.191,4.268-2.067,8.46,1.27,12.042.867.929,1.132,2.667,1.175,4.052.039,1.046-.692,2.126-1.109,3.177-.962,2.419-2.264,4.828,1.185,6.552.541.269.822,1.636.752,2.45-.725,8.203-.975,16.509-2.491,24.571-1.813,9.646-7.319,13.77-17.091,14.025-8.772.221-15.441-2.431-18.037-12.024-1.7-6.267-2.313-12.868-2.943-19.366-.601-6.204,3.147-9.852,9.421-9.856,1.245-.003,2.557-.241,3.723.063,1.504.39,3.106.95,4.287,1.904,3.599,2.913,1.974,7.137,2.243,10.832.074,1.027-1.072,2.121-1.592,3.216-.438.927-1.274,2.077-1.022,2.803.264.749,1.588,1.396,2.54,1.568,1.429.259,2.974.265,4.394-.011.944-.183,2.251-.891,2.48-1.647.229-.742-.595-1.902-1.15-2.755-.326-.509-1.495-.802-1.479-1.157.19-4.282-1.477-8.857,1.904-12.678,2.796-3.15,2.775-5.975.045-8.613-2.637-2.559-5.687-2.279-8.678.425-1.03.933-2.608,1.479-4.019,1.727-1.65.293-3.397-.033-5.086.097-2.226.175-3.659-.441-4.946-2.533-2.15-3.499-6.759-4.671-9.743-2.057-3.783,3.313-7.918,2.904-12.075,2.409-4.708-.563-9.247-1.706-12.531-5.866-1.379-1.744-3.787-3.703-5.782-3.765-11.436-.354-22.893-.272-34.336-.056-1.68.033-4.088,1.158-4.865,2.518-3.145,5.49-8.391,6.617-13.816,7.22-3.93.437-7.832.781-11.396-2.421-2.989-2.688-7.175-1.43-9.769,1.917-.683.886-1.546,2.486-2.172,2.415-4.247-.494-8.957,2.124-12.707-2.094-2.197-2.475-5.32-2.264-7.833-.03-2.021,1.795-2.895,5.924-.963,7.642,3.305,2.946,2.712,6.744,3.186,10.342.257,1.966.091,3.792-2.151,4.849-.637.299-1.268,1.747-1.058,2.398.235.746,1.358,1.57,2.193,1.688,1.777.258,3.638.252,5.419.006.779-.107,1.861-.958,2.041-1.666.191-.736-.501-1.726-.886-2.572-.64-1.4-1.802-2.736-1.912-4.165-.169-2.22.281-4.503.611-6.74.502-3.39,2.696-5.199,6.158-5.218,1.814-.005,3.626-.005,5.443.003,3.507.014,7.883,4.398,7.723,7.941-.2,4.529-.229,9.107-.974,13.555-1.904,11.378-5.575,19.301-18.463,19.792-9.423.36-15.38-3.404-18.333-12.206-2.936-8.743-2.915-17.812-2.931-26.866-.003-.815.692-1.927,1.401-2.391,2.087-1.375,2.042-2.864,1.046-4.917-.824-1.708-1.355-3.609-1.68-5.485-.159-.911.168-2.245.789-2.895,4.683-4.911,4.108-7.205,1.108-13.104-1.822-3.582-.732-8.647-.897-13.044-.005-.198.542-.378.758-.63.858-.991,1.686-2.009,2.526-3.018-1.307-.611-2.564-1.535-3.934-1.748-1.57-.248-3.148-.184-2.907-2.303.438-3.814-1.738-8.238,2.532-11.224.365-.257.58-1.044.528-1.551-1.022-10.264,3.165-21.065-3.148-30.772-.326-.504-.89-1.191-1.337-1.184-.493.002-1.151.613-1.43,1.126-.464.847-.64,1.843-1.005,2.752-.749,1.874-2.094,3.695-2.206,5.596-.308,5.082-.213,10.2-.048,15.294.122,3.769-1.373,8.065,2.884,10.781.203.13.233.634.233.96.017,3.361.01,6.721.01,10.275-1.793.087-3.139.054-4.45.236-1.819.255-2.984,3.147-1.589,3.704Z" fill="#1d1d1b" fill-rule="evenodd"/>
    <path d="M433.759,53.846c2.785-.072,5.552-.581,8.332-.819,5.02-.433,10.13-1.572,15.051-1.029,9.194,1.012,18.236,3.299,27.409,4.564,24.723,3.413,49.228,2.04,73.507-3.844,7.341-1.777,14.741-1.986,22.097.598,2.137.752,4.655.583,6.997.539,2.123-.041,3.106-1.225,3.054-3.551-.13-6.345-.039-12.691-.035-19.038.002-7.878-1.481-9.069-9.367-7.469-.661.132-1.297.387-1.937.621-6.181,2.247-12.5,1.801-18.782.733-6.569-1.115-13.047-2.837-19.641-3.763-26.509-3.706-52.822-2.818-78.913,3.568-6.533,1.6-13.174,1.502-19.786-.562-2.705-.841-5.794-.639-8.697-.54-.663.022-1.778,1.567-1.818,2.455-.197,4.068-.09,8.155-.087,12.235,0,4.081.117,8.163-.047,12.234-.087,2.088.886,3.113,2.663,3.068Z" fill="#1d1d1b" fill-rule="evenodd"/>
    <path d="M301.464,77.71c-1.871,15.573-.657,30.971,2.485,46.282.569,2.781,2.61,3.204,4.699,3.548,8.692,1.425,17.439,1.224,26.062-.266,12.522-2.161,24.555-6.036,35.92-11.81,7.79-3.956,15.013-8.705,20.931-15.241,1.244-1.374,2.088-2.601,1.119-4.777-5.112-11.454-11.438-22.172-19.077-32.104-2.131-2.77-4.55-5.321-6.413-7.48-2.355,3.751-3.989,7.435-6.569,10.25-6.581,7.195-15.19,11.258-24.458,13.697-11.67,3.075-23.373,4.807-34.24-3.496-.255.764-.418,1.074-.458,1.398Z" fill="#1d1d1b" fill-rule="evenodd"/>
    <path d="M719.313,77.459c-4.903,1.58-9.33,3.75-13.96,4.353-12.073,1.575-23.371-1.768-33.923-7.383-7.763-4.124-14.549-9.464-16.872-19.04-.803.653-1.099.835-1.324,1.082-10.664,11.822-18.805,25.261-25.289,39.732-.339.758.237,2.292.87,3.067,6.342,7.74,14.61,12.933,23.511,17.139,15.174,7.17,31.063,11.776,47.956,12.02,4.599.066,9.239-.716,13.799-1.456,1.078-.174,2.532-1.622,2.788-2.721,3.302-14.225,4.11-28.655,3.04-43.198-.111-1.49-.483-2.957-.595-3.595Z" fill="#1d1d1b" fill-rule="evenodd"/>
    <path d="M423.209,273.893c-.822,2.817-1.652,5.683-1.982,8.591-2.526,22.299,3.489,42.002,19.275,58.05,25.543,25.971,56.895,33.167,91.863,26.454,20.157-3.872,37.213-13.687,50.855-29.217,19.168-21.816,22.941-53.831,8.62-78.35-16.106-27.575-41.436-40.585-72.314-43.741-15.365-1.565-30.537.405-45.034,6.034-4.921,1.916-9.642,4.351-14.36,6.744-1.619.818-3.478,2.65-1.097,4.089,2.397,1.452,5.353,2.375,8.387.721,9.821-5.359,20.287-8.537,31.438-9.898,22.704-2.784,43.699,1.739,62.539,14.648,15.292,10.474,25.83,24.506,29.32,43.22,3.581,19.189-1.46,36.117-13.605,50.942-13.153,16.038-30.458,24.983-50.814,28.455-24.45,4.169-46.981-.527-67.412-14.526-23.705-16.238-36.89-46-25.912-75.025,1.164-3.083,4.502-6.051,1.977-9.993-.089-.143.187-.686.425-.853,2.652-1.852,2.763-3.818.554-6.173-.328-.349.21-1.509.348-2.29.759.176,1.705.132,2.236.58.93.787,1.599,1.871,2.52,3.007.891-.632,1.682-1.189,2.595-1.84-2.153-2.511-3.814-4.45-6.166-7.195-4.441,7.269-8.542,13.973-12.434,20.339,1.716,1.196,2.711,1.881,4.207,2.928-1.787.958-3.017,1.489-4.099,2.236-.766.531-1.696,1.245-1.932,2.061Z" fill="#1d1d1b" fill-rule="evenodd"/>
    <path d="M725.465,53.754c-12.989-7.681-27.148-12.398-41.721-15.619-12.903-2.85-26.03-4.728-39.096-6.781-6.08-.953-12.256-1.294-18.635-1.936-.269,3.139-.529,5.49-.653,7.85-.093,1.788-.016,3.585-.016,5.661,32.748,3.311,65.319,7.117,95.238,23.483,1.954-3.009,3.849-6.055,5.877-9.012,1.189-1.733.83-2.566-.993-3.646Z" fill="#1d1d1b" fill-rule="evenodd"/>
    <path d="M300.534,66.634c1.486-.874,2.487-1.649,3.62-2.098,9.297-3.706,18.397-8.164,27.99-10.812,12.159-3.352,24.69-5.458,37.141-7.635,7.9-1.378,15.955-1.854,23.919-2.894.894-.117,2.349-1.241,2.361-1.917.058-3.704-.255-7.413-.499-12.306-13.954,1.86-27.348,3.205-40.569,5.547-10.764,1.91-21.524,4.379-31.902,7.773-9.368,3.064-18.233,7.684-27.262,11.742-.635.287-1.372,1.914-1.112,2.38,1.971,3.482,4.18,6.831,6.312,10.219Z" fill="#1d1d1b" fill-rule="evenodd"/>
    <path d="M629.312,122.992c1.867,5.27,4.506,9.987,9.582,13.02,13.188,7.876,27.457,12.333,42.628,14.508,10.47,1.5,17.941-3.272,24.959-10.068-28.542-2.287-54.898-10.558-79.399-25.787.77,2.931,1.299,5.699,2.23,8.326Z" fill="#1d1d1b" fill-rule="evenodd"/>
    <path d="M339.325,150.549c14.188-1.8,27.424-6.255,40.058-12.738,9.246-4.746,12.767-13.042,14.128-22.874-24.259,15.003-50.405,23.159-78.908,25.537,1.099,1.041,2.015,1.988,3.012,2.846,6.246,5.363,13.094,8.319,21.71,7.229Z" fill="#1d1d1b" fill-rule="evenodd"/>
    <path d="M324.806,79.39c8.071-.739,15.709-3.155,22.867-6.865,6.267-3.245,12.007-7.262,14.348-14.448,1.892-5.815,1.633-6.067-4.58-6.097-2.231.312-4.509.427-6.685.974-7.103,1.783-14.335,3.253-21.197,5.727-7.806,2.813-15.374,6.353-22.831,10.018-4.389,2.157-4.257,3.542-.288,6.658,5.461,4.287,11.842,4.633,18.366,4.035Z" fill="#1d1d1b" fill-rule="evenodd"/>
    <path d="M664.683,66.546c9.25,8.14,20.482,11.67,32.467,12.908,6.769.701,13.332-.27,18.743-5.068,1.91-1.696,2.288-3.278-.207-4.784-1.73-1.041-3.37-2.253-5.167-3.167-13.163-6.726-27.202-10.895-41.628-13.787-3.37-.679-6.93-.416-10.937-.612.062,6.421,2.656,10.928,6.728,14.509Z" fill="#1d1d1b" fill-rule="evenodd"/>
    <path d="M493.667,209.125h33.712c-.035-.056-.349-.741-.795-1.328-3.436-4.578-4.77-9.196-1.677-14.716,1.161-2.071,1.14-4.981,1.101-7.5-.039-2.536-1.419-3.864-4.402-3.748-7,.27-14.016.122-21.026.188-4.359.039-5.853,1.367-5.905,5.768-.021,1.706.457,3.633,1.318,5.105,2.331,3.988,2.328,7.938.402,11.947-.824,1.712-2.047,3.24-2.728,4.285Z" fill="#1d1d1b" fill-rule="evenodd"/>
    <path d="M316.837,136.576c3.914-.598,7.978-.493,11.781-1.455,11.7-2.961,23.528-5.664,34.876-9.666,9.082-3.203,17.673-7.912,26.23-12.429,5.038-2.663,5.563-5.01,4.301-10.839-22.654,20.936-59.811,32.821-87.675,27.823,2.276,4.711,5.252,7.365,10.486,6.565Z" fill="#1d1d1b" fill-rule="evenodd"/>
    <path d="M667.719,125.262c-15.17-4.755-29.799-10.912-40.897-23.44-.944,5.639.392,9.713,5.632,11.896.919.388,1.671,1.167,2.567,1.64,21.171,11.252,43.53,18.618,67.477,21.12,5.842.615,9.836-.919,12.244-6.615-16.335,4.407-31.811.165-47.022-4.601Z" fill="#1d1d1b" fill-rule="evenodd"/>
    <path d="M593.844,59.186c1.188,2.195,4.289,2.118,5.462-.107.648-1.24.948-2.79.979-4.208.107-5.326.045-10.652.05-15.98.004-5.667.037-11.335-.016-17.004-.025-2.535-.69-4.865-3.701-5.226-2.247-.268-3.787,1.998-3.883,5.364-.006.227-.004.454-.004.682.006,10.656-.031,21.311.06,31.965.012,1.521.339,3.197,1.053,4.514Z" fill="#1d1d1b" fill-rule="evenodd"/>
    <path d="M420.931,55.961c-.003,2.49.537,4.694,3.564,4.725,3.085.031,3.566-2.377,3.577-4.714.066-11.548.066-23.096.011-34.645-.011-2.441-.833-4.749-3.767-4.61-2.623.122-3.413,2.15-3.397,4.595.039,5.887.011,11.774.014,17.663.003,5.659.009,11.324-.002,16.986Z" fill="#1d1d1b" fill-rule="evenodd"/>
    <path d="M404.656,47.626c-.533-6.405-.475-12.912-.009-19.328.368-5.038-2.843-7.541-5.924-11.421v43.51c3.787-3.906,6.375-7.363,5.933-12.761Z" fill="#1d1d1b" fill-rule="evenodd"/>
    <path d="M616.732,45.62c-.332,5.5.167,10.524,5.382,14.269V17.551c-4.636,3.492-5.838,7.865-5.406,13.16.396,4.941.322,9.954.025,14.909Z" fill="#1d1d1b" fill-rule="evenodd"/>
    <path d="M501.729,89.233c-.392,2.021-.411,3.829,2.654,3.718,4.733-.173,9.475-.049,14.355-.049,1.224-4.987-.217-7.506-5.059-9.338-4.932-1.869-11.039.983-11.95,5.669Z" fill="#1d1d1b" fill-rule="evenodd"/>
    <path d="M445.505,239.16c-.17.149-.312.324-.487.469-5.571,4.723-5.554,5.603.487,10.474,3.371-3.195,6.589-6.245,9.761-9.252q-4.263-6.487-9.761-1.691Z" fill="#1d1d1b" fill-rule="evenodd"/>
    <path d="M730.378,57.307c-2.528,3.847-4.874,7.423-7.24,11.016,3.839,2.136,7.119,1.434,9.336-1.778,1.826-2.638,1.101-6.367-2.096-9.238Z" fill="#1d1d1b" fill-rule="evenodd"/>
    <path d="M536.314,269.412c-14.869-12.709-40.652-11.48-54.177,2.581-13.438,13.979-10.604,35.164,6.092,45.616,6.883,4.306,14.319,6.606,20.624,6.342,14.98-.006,25.959-4.754,33.686-15.47,8.882-12.322,6.084-28.544-6.225-39.069ZM536.078,305.092c-6.256,8.554-14.993,12.285-25.382,12.523-5.849.223-11.188-1.505-16.255-4.163-13.696-7.191-17.386-24.469-7.705-35.941,10.487-12.432,31.576-14.094,44.109-3.482,10.05,8.514,12.289,21.409,5.233,31.063Z" fill="#1d1d1b" fill-rule="evenodd"/>
    <path d="M451.908,336.003c18.088,17.353,40.007,24.145,64.758,22.695,19.26-1.123,36.341-7.769,50.651-20.767,13.393-12.168,20.981-27.214,21.048-45.618.072-13.739-4.517-25.851-12.786-36.68-.402-.526-.843-1.167-1.408-1.394-3.893-1.557-6.743-4.047-7.961-8.194-.15-.504-.759-1.334-1.001-1.284-4.405.925-4.709-3.696-7.239-5.276-19.577-12.194-40.699-16.535-63.44-12.345-17.929,3.3-33.446,11.117-45.726,24.862-22.433,25.118-21.211,60.677,3.104,84.002ZM474.463,261.6c-.036,5.104-4.723,9.148-10.625,9.168-5.779.018-11.076-4.551-10.922-9.423.146-4.762,5.397-9.218,10.874-9.232,5.866-.015,10.71,4.289,10.673,9.487ZM495.809,247.323c-.072,4.976-4.952,9.148-10.722,9.168-5.966.024-10.598-3.907-10.669-9.051-.079-5.274,4.633-9.554,10.545-9.578,5.791-.029,10.918,4.445,10.847,9.461ZM540.96,269.125c10.837,10.517,13.511,25.141,6.464,37.694-8.046,14.334-21.275,19.664-35.673,20.418-11.615-.295-20.967-3.284-29.178-9.731-14.282-11.222-16.723-31.018-5.423-44.788,15.422-18.794,46.354-20.537,63.811-3.593ZM519.18,248.855c-4.328,2.526-8.601,2.263-12.71-.373-5.209-3.337-5.53-10.616-.469-14.076,2.033-1.388,4.651-1.922,7.004-2.85.082.192.162.379.244.564.9.059,1.807.059,2.695.187,3.415.491,7.27,3.98,7.833,7.033.741,4.029-.891,7.352-4.597,9.516ZM550.074,249.247c.063,5.084-4.926,9.397-10.839,9.362-5.986-.029-10.928-4.377-10.76-9.461.166-4.937,5.225-9.216,10.852-9.177,5.694.04,10.684,4.342,10.747,9.276ZM514.616,335.15c3.64-3.286,9.449-3.707,13.966-1.018,5.478,3.257,6.237,10.171,1.249,14.016-2.013,1.549-4.747,2.164-7.154,3.204-4.871-.642-8.989-2.995-10.342-6.389-1.441-3.623-.608-7.205,2.28-9.812ZM539.992,324.577c3.64-3.286,9.449-3.707,13.966-1.018,5.478,3.257,6.237,10.171,1.249,14.016-2.013,1.549-4.747,2.164-7.154,3.204-4.871-.642-8.989-2.995-10.342-6.389-1.441-3.623-.608-7.205,2.28-9.812ZM490.458,332.542c6.685-2.327,14.381,2.307,14.396,8.667.012,4.677-3.449,8.19-9.01,9.153-5.485.946-11.067-2.514-12.341-7.651-.981-3.936,2.135-8.492,6.955-10.169ZM464.895,321.08c2.44-1.027,5.488-1.465,8.095-1.071,6.6.992,10.012,8.059,6.623,13.318-2.131,3.304-5.41,4.888-9.432,4.703-.6-.035-1.199-.05-1.799-.103-3.912-.337-7.921-3.544-8.581-6.856-.892-4.487.641-8.119,5.093-9.992ZM445.999,303.761c2.61-4.258,9.743-6.061,14.444-3.572,2.828,1.496,5.185,3.469,5.51,6.962.551,5.851-4.015,10.292-10.541,10.303-4.093.092-7.304-1.444-9.56-4.967-1.907-2.984-1.618-5.851.147-8.727ZM441.84,283.695c.082-4.961,4.979-9.11,10.75-9.11,5.917,0,10.582,3.982,10.658,9.093.079,5.183-4.738,9.483-10.644,9.501-5.821.016-10.854-4.416-10.764-9.485Z" fill="#1d1d1b"/>
  </g>
</svg>