<?xml version="1.0" encoding="UTF-8" standalone="no"?>
<!-- Created with Inkscape (http://www.inkscape.org/) -->

<svg
   xmlns:dc="http://purl.org/dc/elements/1.1/"
   xmlns:cc="http://creativecommons.org/ns#"
   xmlns:rdf="http://www.w3.org/1999/02/22-rdf-syntax-ns#"
   xmlns:svg="http://www.w3.org/2000/svg"
   xmlns="http://www.w3.org/2000/svg"
   xmlns:sodipodi="http://sodipodi.sourceforge.net/DTD/sodipodi-0.dtd"
   xmlns:inkscape="http://www.inkscape.org/namespaces/inkscape"
   width="81.390907mm"
   height="27.39414mm"
   viewBox="0 0 81.390907 27.39414"
   version="1.1"
   id="svg8"
   inkscape:version="0.92.2 2405546, 2018-03-11"
   sodipodi:docname="museen.svg">
  <defs
     id="defs2" />
  <sodipodi:namedview
     id="base"
     pagecolor="#ffffff"
     bordercolor="#666666"
     borderopacity="1.0"
     inkscape:pageopacity="0.0"
     inkscape:pageshadow="2"
     inkscape:zoom="3.1310903"
     inkscape:cx="170.0032"
     inkscape:cy="26.926363"
     inkscape:document-units="mm"
     inkscape:current-layer="layer1"
     showgrid="false"
     fit-margin-top="0"
     fit-margin-left="0"
     fit-margin-right="0"
     fit-margin-bottom="0"
     inkscape:window-width="1916"
     inkscape:window-height="1041"
     inkscape:window-x="0"
     inkscape:window-y="18"
     inkscape:window-maximized="0" />
  <metadata
     id="metadata5">
    <rdf:RDF>
      <cc:Work
         rdf:about="">
        <dc:format>image/svg+xml</dc:format>
        <dc:type
           rdf:resource="http://purl.org/dc/dcmitype/StillImage" />
        <dc:title></dc:title>
      </cc:Work>
    </rdf:RDF>
  </metadata>
  <g
     inkscape:label="Layer 1"
     inkscape:groupmode="layer"
     id="layer1"
     transform="translate(-47.017604,-131.83312)">
    <g
       id="g913">
      <path
         id="rect832"
         d="m 47.067604,131.88312 h 81.290906 v 27.29414 H 47.067604 Z"
         style="opacity:1;fill:#6c5d53;fill-opacity:1;fill-rule:nonzero;stroke:#828282;stroke-width:0.1;stroke-linecap:round;stroke-linejoin:round;stroke-miterlimit:4;stroke-dasharray:none;stroke-dashoffset:0;stroke-opacity:1;paint-order:normal"
         inkscape:connector-curvature="0" />
      <g
         transform="translate(1.7115882,0.97015094)"
         style="fill:#ffffff"
         id="g830">
        <g
           id="text817"
           style="font-style:normal;font-variant:normal;font-weight:normal;font-stretch:normal;font-size:8.46666622px;line-height:6.61458302px;font-family:'Open Sans';-inkscape-font-specification:'Open Sans';letter-spacing:0px;word-spacing:0px;fill:#ffffff;fill-opacity:1;stroke:none;stroke-width:0.26458332px;stroke-linecap:butt;stroke-linejoin:miter;stroke-opacity:1"
           aria-label="
Mitteldeutschlands">
          <path
             id="path834"
             style="font-size:20.81388855px;fill:#ffffff;stroke-width:0.26458332px"
             d="m 51.613902,154.73312 -2.05052,-5.35781 h -0.03307 q 0.05788,0.63665 0.05788,1.51308 v 3.84473 H 48.93913 v -6.04408 h 1.058334 l 1.914095,4.98574 h 0.03307 l 1.930631,-4.98574 h 1.050065 v 6.04408 h -0.702799 v -3.89434 q 0,-0.66972 0.05788,-1.45521 h -0.03307 l -2.067057,5.34955 z"
             inkscape:connector-curvature="0" />
          <path
             id="path836"
             style="fill:#ffffff;stroke-width:0.26458332px"
             d="m 57.161884,154.73312 h -0.686263 v -4.53099 h 0.686263 z m -0.744141,-5.75882 q 0,-0.23565 0.115756,-0.34313 0.115755,-0.11163 0.289388,-0.11163 0.165364,0 0.285253,0.11163 0.11989,0.11162 0.11989,0.34313 0,0.23151 -0.11989,0.34726 -0.119889,0.11162 -0.285253,0.11162 -0.173633,0 -0.289388,-0.11162 -0.115756,-0.11575 -0.115756,-0.34726 z"
             inkscape:connector-curvature="0" />
          <path
             id="path838"
             style="fill:#ffffff;stroke-width:0.26458332px"
             d="m 60.088837,154.24943 q 0.181901,0 0.3514,-0.0248 0.169499,-0.0289 0.268717,-0.0579 v 0.52504 q -0.111621,0.0537 -0.330729,0.0868 -0.214974,0.0372 -0.388607,0.0372 -1.314648,0 -1.314648,-1.38493 v -2.69544 h -0.649056 v -0.33073 l 0.649056,-0.28525 0.289388,-0.96739 h 0.396875 v 1.05007 h 1.314648 v 0.5333 h -1.314648 v 2.6665 q 0,0.40928 0.194303,0.62839 0.194304,0.21911 0.533301,0.21911 z"
             inkscape:connector-curvature="0" />
          <path
             id="path840"
             style="fill:#ffffff;stroke-width:0.26458332px"
             d="m 63.081935,154.24943 q 0.181901,0 0.3514,-0.0248 0.169499,-0.0289 0.268718,-0.0579 v 0.52504 q -0.111621,0.0537 -0.33073,0.0868 -0.214973,0.0372 -0.388606,0.0372 -1.314649,0 -1.314649,-1.38493 v -2.69544 h -0.649056 v -0.33073 l 0.649056,-0.28525 0.289388,-0.96739 h 0.396875 v 1.05007 h 1.314649 v 0.5333 h -1.314649 v 2.6665 q 0,0.40928 0.194304,0.62839 0.194303,0.21911 0.5333,0.21911 z"
             inkscape:connector-curvature="0" />
          <path
             id="path842"
             style="fill:#ffffff;stroke-width:0.26458332px"
             d="m 66.525653,154.8158 q -1.00459,0 -1.5875,-0.61185 -0.578776,-0.61185 -0.578776,-1.69912 0,-1.09554 0.537435,-1.74046 0.541569,-0.64492 1.451074,-0.64492 0.851628,0 1.347721,0.56224 0.496094,0.5581 0.496094,1.47587 v 0.43409 h -3.121256 q 0.02067,0.79788 0.401009,1.21129 0.384473,0.41341 1.079004,0.41341 0.731738,0 1.44694,-0.30592 v 0.61185 q -0.363802,0.15709 -0.690397,0.22324 -0.322461,0.0703 -0.781348,0.0703 z m -0.186035,-4.12171 q -0.545703,0 -0.872298,0.35553 -0.322461,0.35554 -0.380339,0.98392 h 2.368848 q 0,-0.64905 -0.289388,-0.99219 -0.289388,-0.34726 -0.826823,-0.34726 z"
             inkscape:connector-curvature="0" />
          <path
             id="path844"
             style="fill:#ffffff;stroke-width:0.26458332px"
             d="m 70.043784,154.73312 h -0.686263 v -6.43268 h 0.686263 z"
             inkscape:connector-curvature="0" />
          <path
             id="path846"
             style="fill:#ffffff;stroke-width:0.26458332px"
             d="m 74.591309,154.1254 h -0.03721 q -0.475423,0.6904 -1.422135,0.6904 -0.888835,0 -1.384929,-0.60771 -0.491959,-0.60772 -0.491959,-1.72806 0,-1.12035 0.496093,-1.74047 0.496094,-0.62011 1.380795,-0.62011 0.921907,0 1.413867,0.66972 h 0.05374 l -0.02894,-0.32659 -0.01654,-0.31833 v -1.84381 h 0.686263 v 6.43268 h -0.558106 z m -1.372526,0.11576 q 0.702799,0 1.016992,-0.38034 0.318327,-0.38447 0.318327,-1.2361 v -0.14469 q 0,-0.96325 -0.322461,-1.37253 -0.318327,-0.41341 -1.021126,-0.41341 -0.603581,0 -0.926042,0.47129 -0.318327,0.46715 -0.318327,1.32291 0,0.86817 0.318327,1.31052 0.318327,0.44235 0.93431,0.44235 z"
             inkscape:connector-curvature="0" />
          <path
             id="path848"
             style="fill:#ffffff;stroke-width:0.26458332px"
             d="m 78.613802,154.8158 q -1.00459,0 -1.5875,-0.61185 -0.578776,-0.61185 -0.578776,-1.69912 0,-1.09554 0.537435,-1.74046 0.541569,-0.64492 1.451074,-0.64492 0.851628,0 1.347722,0.56224 0.496093,0.5581 0.496093,1.47587 v 0.43409 h -3.121256 q 0.02067,0.79788 0.401009,1.21129 0.384473,0.41341 1.079004,0.41341 0.731738,0 1.44694,-0.30592 v 0.61185 q -0.363802,0.15709 -0.690397,0.22324 -0.322461,0.0703 -0.781348,0.0703 z m -0.186035,-4.12171 q -0.545703,0 -0.872298,0.35553 -0.322461,0.35554 -0.380339,0.98392 h 2.368848 q 0,-0.64905 -0.289388,-0.99219 -0.289388,-0.34726 -0.826823,-0.34726 z"
             inkscape:connector-curvature="0" />
          <path
             id="path850"
             style="fill:#ffffff;stroke-width:0.26458332px"
             d="m 82.090593,150.20213 v 2.93935 q 0,0.55398 0.252181,0.82683 0.252181,0.27285 0.789616,0.27285 0.711068,0 1.037663,-0.38861 0.330729,-0.3886 0.330729,-1.26917 v -2.38125 h 0.686263 v 4.53099 h -0.566374 l -0.09922,-0.60772 h -0.03721 q -0.210839,0.33487 -0.587044,0.51263 -0.37207,0.17777 -0.851627,0.17777 -0.826823,0 -1.240235,-0.39274 -0.409277,-0.39274 -0.409277,-1.25677 v -2.96416 z"
             inkscape:connector-curvature="0" />
          <path
             id="path852"
             style="fill:#ffffff;stroke-width:0.26458332px"
             d="m 88.101595,154.24943 q 0.181901,0 0.3514,-0.0248 0.169499,-0.0289 0.268718,-0.0579 v 0.52504 q -0.111621,0.0537 -0.33073,0.0868 -0.214973,0.0372 -0.388606,0.0372 -1.314649,0 -1.314649,-1.38493 v -2.69544 h -0.649056 v -0.33073 l 0.649056,-0.28525 0.289388,-0.96739 h 0.396875 v 1.05007 h 1.314649 v 0.5333 h -1.314649 v 2.6665 q 0,0.40928 0.194304,0.62839 0.194303,0.21911 0.5333,0.21911 z"
             inkscape:connector-curvature="0" />
          <path
             id="path854"
             style="fill:#ffffff;stroke-width:0.26458332px"
             d="m 92.554037,153.49702 q 0,0.63252 -0.471289,0.97565 -0.471289,0.34313 -1.322917,0.34313 -0.901237,0 -1.405598,-0.28525 v -0.63666 q 0.326595,0.16537 0.698665,0.26045 0.376204,0.0951 0.72347,0.0951 0.537435,0 0.826823,-0.1695 0.289388,-0.17363 0.289388,-0.52503 0,-0.26459 -0.231511,-0.45062 -0.227376,-0.19017 -0.892968,-0.44649 -0.63252,-0.23564 -0.901237,-0.40927 -0.264584,-0.17777 -0.396875,-0.40101 -0.128158,-0.22325 -0.128158,-0.5333 0,-0.55398 0.450619,-0.8723 0.450618,-0.32246 1.2361,-0.32246 0.731738,0 1.430403,0.29765 l -0.243912,0.55811 q -0.682129,-0.28112 -1.236101,-0.28112 -0.487825,0 -0.735872,0.15296 -0.248047,0.15296 -0.248047,0.42168 0,0.1819 0.09095,0.31006 0.09508,0.12816 0.30179,0.24391 0.206706,0.11576 0.79375,0.33486 0.806152,0.29353 1.087272,0.59118 0.285254,0.29766 0.285254,0.74828 z"
             inkscape:connector-curvature="0" />
          <path
             id="path856"
             style="fill:#ffffff;stroke-width:0.26458332px"
             d="m 95.476857,154.8158 q -0.983919,0 -1.525488,-0.60358 -0.537435,-0.60772 -0.537435,-1.71566 0,-1.13688 0.545703,-1.757 0.549837,-0.62011 1.562695,-0.62011 0.326595,0 0.65319,0.0703 0.326595,0.0703 0.512631,0.16536 l -0.21084,0.58291 q -0.227376,-0.0909 -0.496094,-0.14883 -0.268717,-0.062 -0.475423,-0.062 -1.380794,0 -1.380794,1.76113 0,0.8351 0.334863,1.28158 0.338997,0.44648 1.000456,0.44648 0.566373,0 1.161686,-0.24391 v 0.60772 q -0.454753,0.23564 -1.14515,0.23564 z"
             inkscape:connector-curvature="0" />
          <path
             id="path858"
             style="fill:#ffffff;stroke-width:0.26458332px"
             d="m 100.80159,154.73312 v -2.93109 q 0,-0.55397 -0.25218,-0.82682 -0.25218,-0.27285 -0.789613,-0.27285 -0.715202,0 -1.045931,0.3886 -0.326595,0.38861 -0.326595,1.27331 v 2.36885 h -0.686263 v -6.43268 h 0.686263 v 1.94716 q 0,0.3514 -0.03307,0.58291 h 0.04134 q 0.202572,-0.32659 0.574642,-0.51263 0.376205,-0.19017 0.855762,-0.19017 0.830955,0 1.244365,0.39688 0.41755,0.39274 0.41755,1.25264 v 2.95589 z"
             inkscape:connector-curvature="0" />
          <path
             id="path860"
             style="fill:#ffffff;stroke-width:0.26458332px"
             d="m 103.57972,154.73312 h -0.68626 v -6.43268 h 0.68626 z"
             inkscape:connector-curvature="0" />
          <path
             id="path862"
             style="fill:#ffffff;stroke-width:0.26458332px"
             d="m 107.82959,154.73312 -0.13643,-0.64492 h -0.0331 q -0.339,0.42581 -0.678,0.57877 -0.33486,0.14883 -0.83922,0.14883 -0.67386,0 -1.05833,-0.34727 -0.38034,-0.34726 -0.38034,-0.98805 0,-1.37252 2.19521,-1.43867 l 0.76895,-0.0248 v -0.28111 q 0,-0.53331 -0.23151,-0.78549 -0.22738,-0.25631 -0.73174,-0.25631 -0.56638,0 -1.28158,0.34726 l -0.21084,-0.52503 q 0.33487,-0.1819 0.73174,-0.28525 0.40101,-0.10336 0.80202,-0.10336 0.81029,0 1.19889,0.35967 0.39274,0.35967 0.39274,1.15342 v 3.09232 z m -1.5503,-0.48369 q 0.64079,0 1.00459,-0.3514 0.36794,-0.3514 0.36794,-0.98392 v -0.40928 l -0.68626,0.0289 q -0.81856,0.0289 -1.18236,0.25631 -0.35967,0.22325 -0.35967,0.69867 0,0.37207 0.22324,0.56637 0.22738,0.19431 0.63252,0.19431 z"
             inkscape:connector-curvature="0" />
          <path
             id="path864"
             style="fill:#ffffff;stroke-width:0.26458332px"
             d="m 112.85667,154.73312 v -2.93109 q 0,-0.55397 -0.25218,-0.82682 -0.25218,-0.27285 -0.78962,-0.27285 -0.71106,0 -1.04179,0.38447 -0.33073,0.38447 -0.33073,1.26917 v 2.37712 h -0.68627 v -4.53099 h 0.55811 l 0.11162,0.62012 h 0.0331 q 0.21084,-0.33487 0.59118,-0.51677 0.38034,-0.18603 0.8475,-0.18603 0.81855,0 1.23196,0.39687 0.41341,0.39274 0.41341,1.26091 v 2.95589 z"
             inkscape:connector-curvature="0" />
          <path
             id="path866"
             style="fill:#ffffff;stroke-width:0.26458332px"
             d="m 118.03258,154.1254 h -0.0372 q -0.47542,0.6904 -1.42213,0.6904 -0.88884,0 -1.38493,-0.60771 -0.49196,-0.60772 -0.49196,-1.72806 0,-1.12035 0.4961,-1.74047 0.49609,-0.62011 1.38079,-0.62011 0.92191,0 1.41387,0.66972 h 0.0537 l -0.0289,-0.32659 -0.0165,-0.31833 v -1.84381 h 0.68627 v 6.43268 h -0.55811 z m -1.37252,0.11576 q 0.7028,0 1.01699,-0.38034 0.31832,-0.38447 0.31832,-1.2361 v -0.14469 q 0,-0.96325 -0.32246,-1.37253 -0.31832,-0.41341 -1.02112,-0.41341 -0.60358,0 -0.92604,0.47129 -0.31833,0.46715 -0.31833,1.32291 0,0.86817 0.31833,1.31052 0.31832,0.44235 0.93431,0.44235 z"
             inkscape:connector-curvature="0" />
          <path
             id="path868"
             style="fill:#ffffff;stroke-width:0.26458332px"
             d="m 123.0638,153.49702 q 0,0.63252 -0.47129,0.97565 -0.47129,0.34313 -1.32291,0.34313 -0.90124,0 -1.4056,-0.28525 v -0.63666 q 0.32659,0.16537 0.69866,0.26045 0.37621,0.0951 0.72347,0.0951 0.53744,0 0.82683,-0.1695 0.28938,-0.17363 0.28938,-0.52503 0,-0.26459 -0.23151,-0.45062 -0.22737,-0.19017 -0.89296,-0.44649 -0.63252,-0.23564 -0.90124,-0.40927 -0.26459,-0.17777 -0.39688,-0.40101 -0.12815,-0.22325 -0.12815,-0.5333 0,-0.55398 0.45061,-0.8723 0.45062,-0.32246 1.2361,-0.32246 0.73174,0 1.43041,0.29765 l -0.24391,0.55811 q -0.68213,-0.28112 -1.2361,-0.28112 -0.48783,0 -0.73588,0.15296 -0.24804,0.15296 -0.24804,0.42168 0,0.1819 0.091,0.31006 0.0951,0.12816 0.30179,0.24391 0.2067,0.11576 0.79375,0.33486 0.80615,0.29353 1.08727,0.59118 0.28525,0.29766 0.28525,0.74828 z"
             inkscape:connector-curvature="0" />
        </g>
        <g
           id="text823"
           style="font-style:normal;font-variant:normal;font-weight:normal;font-stretch:normal;font-size:8.46666622px;line-height:6.61458302px;font-family:'Open Sans';-inkscape-font-specification:'Open Sans';letter-spacing:0px;word-spacing:0px;fill:#ffffff;fill-opacity:1;stroke:none;stroke-width:0.26458332px;stroke-linecap:butt;stroke-linejoin:miter;stroke-opacity:1"
           aria-label="Museen">
          <path
             id="path871"
             style="font-style:normal;font-variant:normal;font-weight:normal;font-stretch:normal;font-size:20.81388855px;font-family:'Delicious Heavy';-inkscape-font-specification:'Delicious Heavy, ';fill:#ffffff;stroke-width:0.26458332px"
             d="m 62.135137,147.41702 v -13.11275 h -3.392664 l -2.89313,7.97172 c -0.208139,0.56198 -0.312209,1.37372 -0.312209,1.37372 0,0 -0.104069,-0.81174 -0.312208,-1.37372 l -2.913944,-7.97172 h -3.37185 v 13.11275 h 3.101269 v -5.74463 l -0.187325,-1.58186 2.476853,7.32649 h 2.393597 l 2.476853,-7.32649 -0.166511,1.58186 v 5.74463 z"
             inkscape:connector-curvature="0" />
          <path
             id="path873"
             style="font-style:normal;font-variant:normal;font-weight:normal;font-stretch:normal;font-size:20.81388855px;font-family:'Delicious Heavy';-inkscape-font-specification:'Delicious Heavy, ';fill:#ffffff;stroke-width:0.26458332px"
             d="m 72.504357,147.72923 0.957438,-1.58185 c 0,0 -0.520347,-0.33303 -0.520347,-0.85337 v -8.07579 h -3.018014 v 7.22242 c 0,0 -1.186391,0.81174 -1.852436,0.81174 -0.457905,0 -0.666044,-0.12489 -0.666044,-0.62442 v -7.40974 H 64.38694 v 7.40974 c 0,1.97732 0.915811,3.10127 3.226153,3.10127 0.957439,0 2.14383,-0.64523 2.913944,-1.2072 0.37465,0.54116 1.040695,1.10313 1.97732,1.2072 z"
             inkscape:connector-curvature="0" />
          <path
             id="path875"
             style="font-style:normal;font-variant:normal;font-weight:normal;font-stretch:normal;font-size:20.81388855px;font-family:'Delicious Heavy';-inkscape-font-specification:'Delicious Heavy, ';fill:#ffffff;stroke-width:0.26458332px"
             d="m 78.364115,147.72923 c 0.915811,0 1.665111,-0.16651 2.268714,-0.4579 1.207206,-0.54117 1.810808,-1.56105 1.894064,-2.60174 0.208139,-2.56011 -2.2479,-3.20534 -4.204406,-4.12115 -0.395463,-0.18733 -0.7493,-0.33302 -0.7493,-0.70767 0,-0.43709 0.47872,-0.58279 0.999067,-0.58279 1.040695,0 2.164644,0.85337 2.164644,0.85337 l 1.581856,-1.45697 c 0,0 -1.248833,-1.74837 -3.704872,-1.74837 -2.705806,0 -3.975453,1.54023 -4.037895,3.05964 -0.08325,2.35197 2.35197,2.91395 4.183592,3.80894 0.582789,0.27058 0.811742,0.54116 0.811742,0.81174 0,0.49954 -0.416278,0.7493 -1.144764,0.7493 -0.832556,0 -2.476853,-1.0615 -2.476853,-1.0615 l -1.103136,2.01894 c 0,0 1.831622,1.43616 3.517547,1.43616 z"
             inkscape:connector-curvature="0" />
          <path
             id="path877"
             style="font-style:normal;font-variant:normal;font-weight:normal;font-stretch:normal;font-size:20.81388855px;font-family:'Delicious Heavy';-inkscape-font-specification:'Delicious Heavy, ';fill:#ffffff;stroke-width:0.26458332px"
             d="m 92.266167,142.5882 c 0,-0.56197 -0.02081,-1.10314 -0.04163,-1.66511 -0.06244,-2.18546 -1.852436,-4.01708 -4.058708,-4.01708 -2.89313,0 -4.87045,2.3936 -4.87045,5.18266 0,2.78906 1.290461,5.66137 4.4958,5.66137 1.269647,0 2.851503,-0.68685 3.85057,-1.51941 l -0.874184,-1.87325 c -0.770114,0.56198 -1.935691,0.895 -2.872316,0.895 -1.186392,0 -1.581856,-1.37372 -1.581856,-2.33116 0,-0.10407 0,-0.22895 0.02081,-0.33302 z m -2.830689,-1.91488 h -2.89313 c 0.08325,-0.72848 0.624417,-1.76918 1.477786,-1.76918 0.936625,0 1.394531,0.95744 1.415344,1.76918 z"
             inkscape:connector-curvature="0" />
          <path
             id="path879"
             style="font-style:normal;font-variant:normal;font-weight:normal;font-stretch:normal;font-size:20.81388855px;font-family:'Delicious Heavy';-inkscape-font-specification:'Delicious Heavy, ';fill:#ffffff;stroke-width:0.26458332px"
             d="m 102.06333,142.5882 c 0,-0.56197 -0.0208,-1.10314 -0.0416,-1.66511 -0.0624,-2.18546 -1.85244,-4.01708 -4.058708,-4.01708 -2.89313,0 -4.87045,2.3936 -4.87045,5.18266 0,2.78906 1.290461,5.66137 4.4958,5.66137 1.269648,0 2.851508,-0.68685 3.850568,-1.51941 l -0.87418,-1.87325 c -0.770116,0.56198 -1.935693,0.895 -2.872318,0.895 -1.186392,0 -1.581856,-1.37372 -1.581856,-2.33116 0,-0.10407 0,-0.22895 0.02081,-0.33302 z m -2.830691,-1.91488 h -2.89313 c 0.08326,-0.72848 0.624417,-1.76918 1.477786,-1.76918 0.936625,0 1.394531,0.95744 1.415344,1.76918 z"
             inkscape:connector-curvature="0" />
          <path
             id="path881"
             style="font-style:normal;font-variant:normal;font-weight:normal;font-stretch:normal;font-size:20.81388855px;font-family:'Delicious Heavy';-inkscape-font-specification:'Delicious Heavy, ';fill:#ffffff;stroke-width:0.26458332px"
             d="m 109.09224,147.41702 h 3.01802 v -7.36811 c 0,-1.51942 -0.47872,-3.1429 -3.16371,-3.1429 -0.83256,0 -1.72756,0.6036 -2.37279,1.06151 v -0.7493 h -3.01801 v 10.1988 h 3.01801 v -7.18079 c 0.54116,-0.33302 1.06151,-0.83255 1.99814,-0.83255 0.39546,0 0.52034,0.22895 0.52034,0.64523 z"
             inkscape:connector-curvature="0" />
        </g>
      </g>
    </g>
  </g>
</svg>
